<?xml version="1.0" encoding="iso-8859-1"?>
<!-- Generator: Adobe Illustrator 17.1.0, SVG Export Plug-In . SVG Version: 6.00 Build 0)  -->
<!DOCTYPE svg PUBLIC "-//W3C//DTD SVG 1.1//EN" "http://www.w3.org/Graphics/SVG/1.1/DTD/svg11.dtd">
<svg version="1.1" id="Capa_1" xmlns="http://www.w3.org/2000/svg" xmlns:xlink="http://www.w3.org/1999/xlink" x="0px" y="0px"
	 viewBox="0 0 296.698 296.698" style="enable-background:new 0 0 296.698 296.698;" xml:space="preserve">
<g>
	<path d="M287.436,118.832c0-27.711-9.116-54.801-26.46-76.279c-17.121-21.2-40.982-36.239-67.588-42.348
		c-4.103-0.945-8.122,1.457-9.339,5.486l-34.012,113.119H54.436v-28c0-4.418-2.756-8-7.174-8h-30c-4.418,0-8,3.582-8,8s3.582,8,8,8
		h21.174v66.721c0,14.514,12.592,26.279,27.105,26.279h70.017l11.499,11.499l-23.652,23.653c-5.812-3.654-12.678-5.776-20.034-5.776
		c-20.818,0-37.755,16.938-37.755,37.757c0,20.817,16.937,37.754,37.755,37.754c17.765,0,32.694-12.335,36.695-28.887h36.611
		c4.001,16.552,18.93,28.887,36.693,28.887c20.819,0,37.757-16.936,37.757-37.754c0-20.819-16.938-37.757-37.757-37.757
		c-7.355,0-14.222,2.122-20.033,5.775l-23.651-23.652l11.499-11.499h80.798c14.514,0,25.453-11.766,25.453-26.279V118.832z
		 M158.556,191.811l-0.185,0.185l-0.184-0.185H158.556z M103.37,280.698c-11.996,0-21.755-9.759-21.755-21.754
		c0-11.997,9.759-21.757,21.755-21.757c11.997,0,21.757,9.76,21.757,21.757C125.127,270.939,115.367,280.698,103.37,280.698z
		 M213.37,280.698c-11.996,0-21.755-9.759-21.755-21.754c0-11.997,9.759-21.757,21.755-21.757c11.997,0,21.757,9.76,21.757,21.757
		C235.127,270.939,225.367,280.698,213.37,280.698z M181.885,238.139c-2.701,4.075-4.63,8.701-5.585,13.672h-35.857
		c-0.955-4.971-2.884-9.597-5.586-13.672l23.515-23.515L181.885,238.139z"/>
</g>
<g>
</g>
<g>
</g>
<g>
</g>
<g>
</g>
<g>
</g>
<g>
</g>
<g>
</g>
<g>
</g>
<g>
</g>
<g>
</g>
<g>
</g>
<g>
</g>
<g>
</g>
<g>
</g>
<g>
</g>
</svg>
